# xmcd CD database file
#
# Track frame offsets:
#	150
#	13228
#	26440
#	42838
#	59898
#	73415
#	121163
#	137135
#	153238
#	181058
#	207970
#	251838
#
# Disc length: 3600 seconds
#
# Revision: 1
# Processed by: cddbd v1.5.2PL0 Copyright (c) Steve Scherf et al.
# Submitted via: CDex 1.70beta3
#
DISCID=af0e0e0c
DTITLE=Gary Moore - Bad for you baby
DYEAR=2008
DGENRE=Blues Rock
TTITLE0=Bad For You Baby
TTITLE1=Down The Line
TTITLE2=Umbrella Man
TTITLE3=Holding On
TTITLE4=Walkin' Thru The Park
TTITLE5=I Love You More Than You'll Ever Know
TTITLE6=Mojo Boogie
TTITLE7=Someday Baby
TTITLE8=Did You Ever Feel Lonely?
TTITLE9=Preacher Man Blues
TTITLE10=Trouble Ain't Far Behind
TTITLE11=Picture On The Wall (Bonus Track)
EXTD=YEAR: 2008
EXTT0=
EXTT1=
EXTT2=
EXTT3=
EXTT4=
EXTT5=
EXTT6=
EXTT7=
EXTT8=
EXTT9=
EXTT10=
EXTT11=
PLAYORDER=
